<svg width="76" height="53" viewBox="0 0 76 53" fill="none" xmlns="http://www.w3.org/2000/svg">
<g clip-path="url(#clip0_2_5593)">
<path d="M6.99886 35.3616C6.48078 35.3569 6.00979 35.0131 5.8685 34.4856C5.16202 31.8292 4.80878 29.0881 4.82762 26.3469C4.84646 23.6058 5.22325 20.8694 5.9627 18.2224C6.13696 17.596 6.78692 17.2287 7.41333 17.4029C8.03974 17.5772 8.40711 18.2272 8.23285 18.8536C7.54992 21.3027 7.20139 23.8272 7.18726 26.3611C7.17313 28.895 7.49811 31.4242 8.15278 33.878C8.32233 34.5044 7.94554 35.1497 7.31913 35.3192C7.2061 35.3522 7.10248 35.3616 6.99886 35.3616Z" fill="white"/>
<path d="M3.97039 41.2301C3.51825 41.2254 3.08965 40.9616 2.89655 40.5189C0.946668 36.0163 -0.0282724 31.2405 -1.32488e-05 26.3234C0.0282459 21.4063 1.05499 16.6399 3.05668 12.1608C3.32043 11.5674 4.01749 11.2989 4.61093 11.5674C5.20438 11.8311 5.47284 12.5282 5.20438 13.1216C3.33927 17.2993 2.37846 21.7501 2.35491 26.3375C2.33137 30.9296 3.24037 35.3851 5.05837 39.5863C5.31741 40.1845 5.04424 40.8768 4.44609 41.1359C4.29066 41.1971 4.13053 41.2301 3.97039 41.2301Z" fill="white"/>
<path d="M37.773 3.89183e-05C23.1395 -0.0800286 11.2094 11.7182 11.1247 26.3517C11.0399 40.9852 22.8428 52.92 37.4763 53C52.1098 53.0801 64.0446 41.2819 64.1247 26.6484C64.2094 12.0149 52.4112 0.0848163 37.773 3.89183e-05ZM46.5475 38.5832H41.3525V20.5115H41.2866L35.0978 38.5832H31.1368L25.1789 20.5115H25.1129V38.5832H19.918V15.0198H27.774L33.1997 30.3974H33.2657L38.7244 15.0198H46.5475V38.5832ZM54.931 38.5832H49.9386V22.4048H54.931V38.5832ZM54.4836 19.3623C53.9184 19.9274 53.2355 20.21 52.4348 20.21C51.6341 20.21 50.9559 19.9274 50.386 19.3623C49.8161 18.7971 49.5382 18.1141 49.5382 17.3135C49.5382 16.5128 49.8208 15.8346 50.386 15.2647C50.9512 14.6995 51.6341 14.4169 52.4348 14.4169C53.2355 14.4169 53.9184 14.6995 54.4836 15.2647C55.0488 15.8299 55.3314 16.5128 55.3314 17.3135C55.3314 18.1141 55.0488 18.7971 54.4836 19.3623Z" fill="white"/>
<path d="M68.5519 35.3616C69.07 35.3569 69.541 35.0131 69.6823 34.4856C70.3888 31.8292 70.742 29.0881 70.7232 26.3469C70.7043 23.6058 70.3276 20.8694 69.5881 18.2224C69.4138 17.596 68.7639 17.2287 68.1375 17.4029C67.5111 17.5772 67.1437 18.2272 67.318 18.8536C68.0009 21.3027 68.3494 23.8272 68.3636 26.3611C68.3777 28.895 68.0527 31.4242 67.398 33.878C67.2285 34.5044 67.6053 35.1497 68.2317 35.3192C68.3447 35.3522 68.4483 35.3616 68.5519 35.3616Z" fill="white"/>
<path d="M71.5757 41.2301C72.0278 41.2254 72.4564 40.9616 72.6495 40.5189C74.5994 36.0163 75.5743 31.2405 75.5461 26.3234C75.5178 21.4063 74.4911 16.6399 72.4894 12.1608C72.2256 11.5674 71.5286 11.2989 70.9351 11.5674C70.3417 11.8311 70.0732 12.5282 70.3417 13.1216C72.2068 17.2993 73.1676 21.7501 73.1911 26.3375C73.2147 30.9296 72.3057 35.3851 70.4877 39.5863C70.2286 40.1845 70.5018 40.8768 71.1 41.1359C71.2554 41.1971 71.4202 41.2301 71.5757 41.2301Z" fill="white"/>
</g>
<defs>
<clipPath id="clip0_2_5593">
<rect width="75.5461" height="53" fill="white"/>
</clipPath>
</defs>
</svg>
