<svg width="50" height="50" viewBox="0 0 50 50" fill="none" xmlns="http://www.w3.org/2000/svg">
<path fill-rule="evenodd" clip-rule="evenodd" d="M10.4167 27.0833H35.1354L27.5667 36.1666C26.8292 37.05 26.95 38.3645 27.8333 39.1C28.7188 39.8375 30.0313 39.7166 30.7688 38.8333L41.1854 26.3333C41.2667 26.2354 41.3063 26.1208 41.3667 26.0125C41.4167 25.925 41.4771 25.85 41.5146 25.7541C41.6083 25.5145 41.6646 25.2625 41.6646 25.0083C41.6646 25.0062 41.6667 25.002 41.6667 25C41.6667 24.9979 41.6646 24.9937 41.6646 24.9916C41.6646 24.7375 41.6083 24.4854 41.5146 24.2458C41.4771 24.15 41.4167 24.075 41.3667 23.9875C41.3063 23.8791 41.2667 23.7645 41.1854 23.6666L30.7688 11.1666C30.3542 10.6729 29.7625 10.4166 29.1667 10.4166C28.6958 10.4166 28.2229 10.575 27.8333 10.9C26.95 11.6354 26.8292 12.95 27.5667 13.8333L35.1354 22.9166H10.4167C9.26668 22.9166 8.33334 23.85 8.33334 25C8.33334 26.15 9.26668 27.0833 10.4167 27.0833" fill="white"/>
</svg>
